<svg width="12" height="12" viewBox="0 0 12 12" fill="none" xmlns="http://www.w3.org/2000/svg">
<path fill-rule="evenodd" clip-rule="evenodd" d="M8.5 7.25001C9.1875 7.25001 9.7766 7.49536 10.2666 7.98536C10.7564 8.47529 11.0008 9.06351 11 9.75001V10C11 10.3542 10.8796 10.6516 10.6396 10.8916C10.3997 11.1314 10.1032 11.2508 9.75 11.25H2.25C1.89583 11.25 1.59952 11.1297 1.36035 10.8897C1.12119 10.6497 1.00083 10.3533 1 10V9.75001C1 9.06251 1.24535 8.47452 1.73535 7.98536C2.22535 7.4962 2.81334 7.25084 3.5 7.25001H8.5ZM6 1.00001C6.68583 0.998342 7.27493 1.24369 7.7666 1.73536C8.25804 2.22695 8.5025 2.81517 8.5 3.50001C8.4975 4.18501 8.25326 4.77411 7.7666 5.26661C7.27993 5.75911 6.69083 6.00334 6 6.00001C5.31266 6.00001 4.72445 5.75555 4.23535 5.26661C3.74619 4.77744 3.50083 4.18834 3.5 3.50001C3.49917 2.81168 3.74452 2.22369 4.23535 1.73536C4.72618 1.24703 5.31417 1.00168 6 1.00001Z" fill="#E6EFFF"/>
</svg>
