<svg width="11" height="11" viewBox="0 0 11 11" fill="none" xmlns="http://www.w3.org/2000/svg">
<path d="M10.4968 5.24682C10.498 5.40064 10.4513 5.551 10.363 5.67701C10.2748 5.80302 10.1496 5.89842 10.0046 5.94995L7.03089 7.03135L5.94995 10.0046C5.89667 10.1482 5.80074 10.272 5.67505 10.3594C5.54936 10.4468 5.39992 10.4936 5.24682 10.4936C5.09372 10.4936 4.94429 10.4468 4.8186 10.3594C4.6929 10.272 4.59698 10.1482 4.5437 10.0046L3.46276 7.03089L0.489011 5.94995C0.345478 5.89667 0.221689 5.80074 0.134272 5.67505C0.0468556 5.54936 0 5.39992 0 5.24682C0 5.09372 0.0468556 4.94429 0.134272 4.8186C0.221689 4.6929 0.345478 4.59698 0.489011 4.5437L3.46276 3.46276L4.5437 0.489011C4.59698 0.345478 4.6929 0.221689 4.8186 0.134272C4.94429 0.0468556 5.09372 0 5.24682 0C5.39992 0 5.54936 0.0468556 5.67505 0.134272C5.80074 0.221689 5.89667 0.345478 5.94995 0.489011L7.03135 3.46276L10.0046 4.5437C10.1496 4.59523 10.2748 4.69063 10.363 4.81664C10.4513 4.94265 10.498 5.09301 10.4968 5.24682Z" fill="#E6EFFF"/>
</svg>
