<svg width="8" height="10" viewBox="0 0 8 10" fill="none" xmlns="http://www.w3.org/2000/svg">
<path fill-rule="evenodd" clip-rule="evenodd" d="M3.6245 0.134918C3.7302 0.047702 3.86296 0 4 0C4.13704 0 4.2698 0.047702 4.3755 0.134918C5.0941 0.732272 5.75241 1.39862 6.341 2.12442C7.161 3.14392 8 4.52742 8 5.97442C8 7.03528 7.57857 8.0527 6.82843 8.80285C6.07828 9.55299 5.06087 9.97442 4 9.97442C2.93913 9.97442 1.92172 9.55299 1.17157 8.80285C0.421427 8.0527 0 7.03528 0 5.97442C0 4.52742 0.839 3.14392 1.659 2.12392C2.24746 1.39832 2.9061 0.732139 3.6245 0.134918Z" fill="#E6EFFF"/>
</svg>
