<svg width="12" height="12" viewBox="0 0 12 12" fill="none" xmlns="http://www.w3.org/2000/svg">
<path fill-rule="evenodd" clip-rule="evenodd" d="M8.74956 3.5C9.72863 3.50007 10.679 3.77459 11.4996 4.2793V8.5C11.4996 10.1568 10.1563 11.4999 8.49956 11.5H4.27788C3.77337 10.6795 3.49858 9.72894 3.49858 8.75C3.49871 7.35773 4.05219 6.02259 5.03667 5.03809C6.02129 4.05347 7.35709 3.5 8.74956 3.5ZM1.74858 7.875C1.97155 7.87525 2.18603 7.96123 2.34819 8.11426C2.51037 8.26736 2.60856 8.47657 2.62163 8.69922C2.63469 8.92186 2.56165 9.14148 2.4185 9.3125C2.27537 9.48331 2.07243 9.59282 1.85112 9.61914L1.74858 9.62598H0.873582C0.650603 9.62569 0.436115 9.53979 0.273972 9.38672C0.111823 9.23362 0.0145836 9.02438 0.00151137 8.80176C-0.0115593 8.57911 0.0605104 8.35951 0.20366 8.18848C0.346728 8.01765 0.549793 7.90824 0.771043 7.88184L0.873582 7.875H1.74858ZM3.12553 2.30859C3.33805 2.29524 3.54805 2.35981 3.71636 2.49023L3.79936 2.56348L4.41753 3.18164C4.57442 3.33906 4.66557 3.55032 4.67241 3.77246C4.67919 3.99454 4.6015 4.21122 4.45464 4.37793C4.3076 4.54468 4.10174 4.64982 3.88042 4.6709C3.65926 4.69185 3.43801 4.62711 3.26225 4.49121L3.18022 4.41895L2.56206 3.80078C2.39801 3.63669 2.30522 3.41367 2.30522 3.18164C2.30523 2.94965 2.39805 2.72756 2.56206 2.56348C2.71274 2.41281 2.91288 2.32197 3.12553 2.30859ZM8.74956 0C8.98135 0.000103936 9.20374 0.0920461 9.36772 0.255859C9.53181 0.419951 9.62455 0.64294 9.62456 0.875V1.75C9.62456 1.98208 9.53183 2.20504 9.36772 2.36914C9.20374 2.533 8.98138 2.6249 8.74956 2.625C8.51755 2.625 8.29451 2.53315 8.13042 2.36914C7.96631 2.20504 7.87456 1.98208 7.87456 1.75V0.875C7.87457 0.64294 7.96633 0.419951 8.13042 0.255859C8.2945 0.0918939 8.51758 0 8.74956 0Z" fill="#E6EFFF"/>
</svg>
