<svg width="298" height="132" viewBox="0 0 298 132" fill="none" xmlns="http://www.w3.org/2000/svg">
<g clip-path="url(#clip0_1132_483)">
<path d="M0.412454 15.9999C0.444422 7.1634 7.63373 0.0259151 16.4702 0.057883L281.468 1.01657C290.305 1.04854 297.442 8.23785 297.411 17.0743L297.056 115.074C297.024 123.91 289.835 131.048 280.998 131.016L15.9999 130.057C7.16343 130.025 0.0259525 122.836 0.0579204 113.999L0.412454 15.9999Z" fill="#141E2D"/>
<path d="M-13.8663 91.9487C3.21017 103.088 20.0073 113.732 48.1916 115.629C75.4289 117.463 104.98 119.608 125.356 130.336C171.941 145.621 198.064 133.602 218.482 134.288C255.844 135.544 277.414 151.564 302.92 164.639" stroke="url(#paint0_linear_1132_483)" stroke-width="100" stroke-linecap="round"/>
</g>
<defs>
<linearGradient id="paint0_linear_1132_483" x1="-18.5041" y1="192.686" x2="301.605" y2="203.446" gradientUnits="userSpaceOnUse">
<stop offset="0.05" stop-color="#29BCBC"/>
<stop offset="1" stop-color="#136CFB"/>
</linearGradient>
<clipPath id="clip0_1132_483">
<path d="M0.412454 15.9999C0.444422 7.1634 7.63373 0.0259151 16.4702 0.057883L281.468 1.01657C290.305 1.04854 297.442 8.23785 297.411 17.0743L297.056 115.074C297.024 123.91 289.835 131.048 280.998 131.016L15.9999 130.057C7.16343 130.025 0.0259525 122.836 0.0579204 113.999L0.412454 15.9999Z" fill="white"/>
</clipPath>
</defs>
</svg>
